<svg width="7" height="26" viewBox="0 0 7 26" fill="none" xmlns="http://www.w3.org/2000/svg">
<path d="M2.87 23.1077C2.87 22.9977 2.9 22.9127 2.96 22.8527C3.02 22.7894 3.10333 22.7577 3.21 22.7577C3.23667 22.7577 3.265 22.7611 3.295 22.7677C3.32167 22.7711 3.345 22.7761 3.365 22.7827C3.35833 22.8261 3.35333 22.8744 3.35 22.9277C3.34333 22.9811 3.34 23.0444 3.34 23.1177C3.34 23.2611 3.35333 23.4061 3.38 23.5527C3.40333 23.6994 3.42333 23.8394 3.44 23.9727C3.61667 24.0494 3.78833 24.1194 3.955 24.1827C4.11833 24.2461 4.26833 24.3011 4.405 24.3477C4.54167 24.3911 4.66 24.4261 4.76 24.4527C4.86 24.4761 4.935 24.4894 4.985 24.4927C4.92833 24.2227 4.88 23.9511 4.84 23.6777C4.8 23.4011 4.77 23.1111 4.75 22.8077C4.80667 22.7711 4.86833 22.7411 4.935 22.7177C5.00167 22.6911 5.07333 22.6777 5.15 22.6777C5.17 22.6777 5.19167 22.6777 5.215 22.6777C5.23833 22.6777 5.26167 22.6811 5.285 22.6877C5.28167 22.7811 5.27833 22.8794 5.275 22.9827C5.275 23.0861 5.275 23.2211 5.275 23.3877C5.275 23.4977 5.27667 23.6027 5.28 23.7027C5.28667 23.7994 5.295 23.8977 5.305 23.9977C5.315 24.0977 5.32833 24.2044 5.345 24.3177C5.36167 24.4277 5.38167 24.5527 5.405 24.6927C5.345 24.8461 5.19833 24.9944 4.965 25.1377C4.845 25.0811 4.66333 25.0027 4.42 24.9027C4.17333 24.7994 3.845 24.6694 3.435 24.5127C3.38833 24.6627 3.305 24.7611 3.185 24.8077C3.16833 24.7911 3.14833 24.7427 3.125 24.6627C3.09833 24.5827 3.07167 24.4844 3.045 24.3677C2.915 24.3177 2.80167 24.2761 2.705 24.2427C2.60833 24.2061 2.51833 24.1744 2.435 24.1477C2.34833 24.1211 2.265 24.0977 2.185 24.0777C2.10167 24.0544 2.01167 24.0327 1.915 24.0127C1.90833 24.1294 1.87667 24.2211 1.82 24.2877C1.76 24.3544 1.68333 24.3877 1.59 24.3877C1.56333 24.3877 1.53167 24.3844 1.495 24.3777C1.45833 24.3677 1.42667 24.3577 1.4 24.3477C1.41 24.2811 1.41667 24.2177 1.42 24.1577C1.42333 24.0944 1.425 24.0127 1.425 23.9127C1.425 23.7027 1.42 23.5061 1.41 23.3227C1.39667 23.1394 1.38333 22.9744 1.37 22.8277C1.35667 22.6777 1.345 22.5494 1.335 22.4427C1.32167 22.3361 1.315 22.2544 1.315 22.1977C1.315 22.1211 1.355 22.0527 1.435 21.9927C1.515 21.9327 1.62833 21.8877 1.775 21.8577C1.765 21.9611 1.75833 22.0461 1.755 22.1127C1.75167 22.1761 1.75 22.2327 1.75 22.2827C1.75 22.4661 1.76 22.6344 1.78 22.7877C1.79667 22.9377 1.815 23.0827 1.835 23.2227C1.865 23.2427 1.90333 23.2661 1.95 23.2927C1.99667 23.3161 2.06167 23.3477 2.145 23.3877C2.22833 23.4277 2.33333 23.4777 2.46 23.5377C2.58667 23.5944 2.745 23.6644 2.935 23.7477C2.915 23.6211 2.9 23.5027 2.89 23.3927C2.87667 23.2794 2.87 23.1844 2.87 23.1077ZM2.575 21.3896C2.60167 21.3029 2.66167 21.2212 2.755 21.1446C2.845 21.0679 2.945 21.0112 3.055 20.9746C3.145 21.0112 3.25333 21.0679 3.38 21.1446C3.50667 21.2212 3.63667 21.2979 3.77 21.3746C3.9 21.4512 4.025 21.5212 4.145 21.5846C4.26167 21.6446 4.35833 21.6796 4.435 21.6896C4.37833 21.6362 4.31333 21.5779 4.24 21.5146C4.16333 21.4479 4.08833 21.3846 4.015 21.3246C3.93833 21.2612 3.87 21.2029 3.81 21.1496C3.74667 21.0962 3.7 21.0546 3.67 21.0246C3.60333 20.9612 3.52667 20.8862 3.44 20.7996C3.35 20.7129 3.26667 20.6229 3.19 20.5296C3.11 20.4329 3.04333 20.3362 2.99 20.2396C2.93333 20.1429 2.905 20.0546 2.905 19.9746C2.905 19.8879 2.935 19.8162 2.995 19.7596C3.05167 19.6996 3.11167 19.6529 3.175 19.6196C3.18167 19.6196 3.19167 19.6329 3.205 19.6596C3.215 19.6829 3.24667 19.7179 3.3 19.7646C3.36 19.8112 3.44333 19.8646 3.55 19.9246C3.65333 19.9812 3.76667 20.0379 3.89 20.0946C4.01 20.1479 4.13333 20.1929 4.26 20.2296C4.38667 20.2662 4.50167 20.2846 4.605 20.2846C4.68833 20.2846 4.74167 20.2746 4.765 20.2546C4.78833 20.2312 4.8 20.1996 4.8 20.1596C4.8 20.1229 4.79167 20.0846 4.775 20.0446C4.75833 20.0046 4.75 19.9729 4.75 19.9496C4.75667 19.9362 4.77167 19.9262 4.795 19.9196C4.815 19.9096 4.83333 19.9046 4.85 19.9046C4.87333 19.9312 4.89667 19.9629 4.92 19.9996C4.94333 20.0362 4.965 20.0746 4.985 20.1146C5.005 20.1546 5.02167 20.1946 5.035 20.2346C5.04833 20.2712 5.055 20.3046 5.055 20.3346C5.055 20.4312 5.04 20.5112 5.01 20.5746C4.98333 20.6346 4.94667 20.6829 4.9 20.7196C4.85333 20.7529 4.79833 20.7762 4.735 20.7896C4.66833 20.8029 4.59833 20.8096 4.525 20.8096C4.485 20.8096 4.44 20.8062 4.39 20.7996C4.34 20.7929 4.28167 20.7796 4.215 20.7596C4.145 20.7396 4.06333 20.7112 3.97 20.6746C3.87333 20.6379 3.75833 20.5912 3.625 20.5346C3.625 20.5412 3.64833 20.5862 3.695 20.6696C3.74167 20.7529 3.81333 20.8429 3.91 20.9396C4.06 21.0962 4.20833 21.2379 4.355 21.3646C4.50167 21.4879 4.665 21.6146 4.845 21.7446C4.94833 21.8179 5.035 21.8829 5.105 21.9396C5.17833 21.9929 5.22667 22.0396 5.25 22.0796C5.21 22.1496 5.15333 22.2012 5.08 22.2346C5.01 22.2679 4.93667 22.2929 4.86 22.3096C4.79667 22.3096 4.71667 22.3012 4.62 22.2846C4.52333 22.2646 4.41667 22.2396 4.3 22.2096C4.18 22.1762 4.055 22.1362 3.925 22.0896C3.795 22.0429 3.665 21.9912 3.535 21.9346C3.24167 21.8079 3.01167 21.6929 2.845 21.5896C2.67833 21.4829 2.58833 21.4162 2.575 21.3896ZM4.065 19.3894C3.57167 19.266 3.21167 19.146 2.985 19.0294C2.755 18.9094 2.64 18.7844 2.64 18.6544C2.64 18.561 2.685 18.4494 2.775 18.3194C2.965 18.426 3.12333 18.5094 3.25 18.5694C3.37333 18.626 3.48667 18.6677 3.59 18.6944C3.79 18.751 3.99833 18.811 4.215 18.8744C4.42833 18.9377 4.63333 19.001 4.83 19.0644C5.02667 19.1244 5.20333 19.181 5.36 19.2344C5.52 19.2844 5.64167 19.3244 5.725 19.3544C5.92167 19.4277 6.08833 19.501 6.225 19.5744C6.36167 19.6444 6.47333 19.7177 6.56 19.7944C6.64667 19.871 6.71 19.951 6.75 20.0344C6.79 20.121 6.81 20.2144 6.81 20.3144C6.81 20.3877 6.80167 20.4594 6.785 20.5294C6.77167 20.6027 6.75167 20.671 6.725 20.7344C6.70167 20.7977 6.67167 20.8544 6.635 20.9044C6.59833 20.9544 6.56 20.9944 6.52 21.0244C6.49667 21.021 6.47333 21.0094 6.45 20.9894C6.43 20.9727 6.41833 20.956 6.415 20.9394C6.475 20.8827 6.51833 20.8227 6.545 20.7594C6.57167 20.6994 6.585 20.626 6.585 20.5394C6.585 20.4327 6.55333 20.3377 6.49 20.2544C6.42667 20.1744 6.30333 20.0927 6.12 20.0094C5.94 19.926 5.685 19.836 5.355 19.7394C5.02833 19.6427 4.59833 19.526 4.065 19.3894ZM2.245 18.5744C2.22833 18.5744 2.2 18.5694 2.16 18.5594C2.12 18.5994 2.06333 18.6194 1.99 18.6194C1.96 18.6194 1.91833 18.616 1.865 18.6094C1.81167 18.5994 1.755 18.5877 1.695 18.5744C1.63167 18.5577 1.56833 18.541 1.505 18.5244C1.44167 18.5044 1.38667 18.4844 1.34 18.4644C1.34 18.4244 1.35167 18.376 1.375 18.3194C1.395 18.2594 1.42333 18.1994 1.46 18.1394C1.49333 18.0794 1.53167 18.0244 1.575 17.9744C1.615 17.9244 1.65333 17.886 1.69 17.8594C1.72667 17.8994 1.77833 17.9494 1.845 18.0094C1.91167 18.0694 1.98167 18.1277 2.055 18.1844C2.125 18.241 2.19167 18.2927 2.255 18.3394C2.315 18.386 2.35833 18.4144 2.385 18.4244C2.37833 18.4644 2.36167 18.4994 2.335 18.5294C2.305 18.5594 2.275 18.5744 2.245 18.5744ZM5.175 17.7277C5.155 17.9177 5.07167 18.0694 4.925 18.1827C4.77833 18.2961 4.59167 18.3527 4.365 18.3527C4.23167 18.3527 4.09333 18.3327 3.95 18.2927C3.80667 18.2527 3.66833 18.1961 3.535 18.1227C3.39833 18.0494 3.27 17.9627 3.15 17.8627C3.03 17.7627 2.92667 17.6544 2.84 17.5377C2.70333 17.3544 2.635 17.1827 2.635 17.0227C2.69167 16.9161 2.81 16.8111 2.99 16.7077C2.99 16.6911 2.99 16.6761 2.99 16.6627C2.98667 16.6494 2.985 16.6344 2.985 16.6177C2.985 16.4411 3.14167 16.3527 3.455 16.3527C3.665 16.3527 3.865 16.3877 4.055 16.4577C4.24167 16.5244 4.41167 16.6194 4.565 16.7427C4.71833 16.8627 4.84833 17.0077 4.955 17.1777C5.05833 17.3444 5.13167 17.5277 5.175 17.7277ZM3.6 17.4727C3.67667 17.5294 3.76 17.5827 3.85 17.6327C3.94 17.6827 4.03167 17.7261 4.125 17.7627C4.215 17.7994 4.30333 17.8277 4.39 17.8477C4.47333 17.8677 4.54833 17.8777 4.615 17.8777C4.695 17.8777 4.77167 17.8644 4.845 17.8377C4.91833 17.8111 4.96 17.7811 4.97 17.7477C4.93667 17.5977 4.875 17.4611 4.785 17.3377C4.69167 17.2111 4.57667 17.1027 4.44 17.0127C4.30333 16.9194 4.14833 16.8477 3.975 16.7977C3.80167 16.7444 3.61667 16.7177 3.42 16.7177C3.33333 16.7177 3.265 16.7227 3.215 16.7327C3.165 16.7427 3.12167 16.7594 3.085 16.7827C3.12833 16.9294 3.19833 17.0611 3.295 17.1777C3.39167 17.2911 3.49333 17.3894 3.6 17.4727ZM4.225 14.2307C4.46833 14.3074 4.69 14.384 4.89 14.4607C5.09 14.5374 5.27333 14.619 5.44 14.7057C5.61 14.7924 5.765 14.8857 5.905 14.9857C6.04833 15.0857 6.18333 15.1957 6.31 15.3157C6.47 15.469 6.59167 15.6274 6.675 15.7907C6.76167 15.954 6.805 16.1174 6.805 16.2807C6.805 16.364 6.795 16.4474 6.775 16.5307C6.75833 16.6107 6.73333 16.6857 6.7 16.7557C6.67 16.829 6.63333 16.8924 6.59 16.9457C6.55 17.0024 6.50667 17.0424 6.46 17.0657C6.42 17.0657 6.385 17.0424 6.355 16.9957C6.39167 16.9557 6.42 16.9224 6.44 16.8957C6.46 16.869 6.47667 16.8424 6.49 16.8157C6.50333 16.7924 6.51167 16.7657 6.515 16.7357C6.51833 16.709 6.52 16.6774 6.52 16.6407C6.52 16.4507 6.46333 16.2657 6.35 16.0857C6.24 15.9024 6.08167 15.7307 5.875 15.5707C5.67167 15.4074 5.42333 15.259 5.13 15.1257C4.84 14.9924 4.515 14.879 4.155 14.7857C4.22167 14.829 4.30333 14.8824 4.4 14.9457C4.49667 15.009 4.59333 15.079 4.69 15.1557C4.78333 15.2324 4.86833 15.3124 4.945 15.3957C5.02167 15.4757 5.07333 15.554 5.1 15.6307C5.09667 15.684 5.085 15.7407 5.065 15.8007C5.04833 15.8574 5.02333 15.9124 4.99 15.9657C4.95667 16.0157 4.91667 16.0607 4.87 16.1007C4.82333 16.1407 4.77 16.1674 4.71 16.1807C4.61333 16.1807 4.53667 16.1774 4.48 16.1707C4.42 16.164 4.355 16.1524 4.285 16.1357C4.15833 16.1057 4.015 16.0624 3.855 16.0057C3.695 15.9457 3.53833 15.8774 3.385 15.8007C3.22833 15.7207 3.08333 15.634 2.95 15.5407C2.81333 15.444 2.70667 15.344 2.63 15.2407C2.63 15.214 2.63333 15.1807 2.64 15.1407C2.64333 15.1007 2.65167 15.059 2.665 15.0157C2.67833 14.9724 2.695 14.9307 2.715 14.8907C2.73167 14.8507 2.755 14.8157 2.785 14.7857C2.81833 14.8224 2.93 14.9024 3.12 15.0257C3.31 15.149 3.58333 15.2857 3.94 15.4357C3.97667 15.4524 4.03 15.4724 4.1 15.4957C4.17 15.519 4.24333 15.5424 4.32 15.5657C4.39667 15.5857 4.47167 15.604 4.545 15.6207C4.61833 15.6374 4.67667 15.6457 4.72 15.6457C4.74667 15.6457 4.76667 15.6424 4.78 15.6357C4.79333 15.6257 4.80333 15.6174 4.81 15.6107C4.8 15.5507 4.75167 15.4707 4.665 15.3707C4.575 15.2707 4.43667 15.1574 4.25 15.0307C4.13 14.9507 4.01167 14.8774 3.895 14.8107C3.775 14.744 3.655 14.679 3.535 14.6157C3.415 14.549 3.29167 14.4807 3.165 14.4107C3.03833 14.3407 2.90833 14.2657 2.775 14.1857C2.775 14.1424 2.78 14.0957 2.79 14.0457C2.8 13.9957 2.81333 13.9474 2.83 13.9007C2.84333 13.854 2.86 13.814 2.88 13.7807C2.89667 13.744 2.915 13.7174 2.935 13.7007C3.155 13.804 3.37 13.9007 3.58 13.9907C3.79 14.0807 4.005 14.1607 4.225 14.2307ZM1.63 9.19301C1.68667 9.18301 1.72667 9.17634 1.75 9.17301C1.77 9.16634 1.79833 9.16301 1.835 9.16301C1.945 9.16301 2.04833 9.18801 2.145 9.23801C2.23833 9.28467 2.305 9.34967 2.345 9.43301C2.255 9.49967 2.17833 9.58134 2.115 9.67801C2.04833 9.77467 1.995 9.88134 1.955 9.99801C1.91167 10.1113 1.88 10.2297 1.86 10.353C1.84 10.4763 1.83 10.5963 1.83 10.713C1.83 10.8297 1.84 10.9397 1.86 11.043C1.87667 11.143 1.90167 11.233 1.935 11.313C1.965 11.3897 2.00333 11.4513 2.05 11.498C2.09667 11.5413 2.15 11.563 2.21 11.563C2.28333 11.553 2.35833 11.508 2.435 11.428C2.50833 11.348 2.58167 11.2497 2.655 11.133C2.725 11.0163 2.795 10.888 2.865 10.748C2.935 10.6047 3.00167 10.4647 3.065 10.328C3.145 10.158 3.22 10.0113 3.29 9.88801C3.35667 9.76467 3.43167 9.66301 3.515 9.58301C3.595 9.50301 3.68667 9.44301 3.79 9.40301C3.89333 9.36301 4.01833 9.34301 4.165 9.34301C4.335 9.34301 4.495 9.37134 4.645 9.42801C4.79167 9.48467 4.92 9.56801 5.03 9.67801C5.14 9.78467 5.225 9.91467 5.285 10.068C5.34833 10.2213 5.38 10.393 5.38 10.583C5.38 10.7697 5.35167 10.9713 5.295 11.188C5.23833 11.4047 5.16 11.608 5.06 11.798C4.96333 11.9847 4.85167 12.1413 4.725 12.268C4.595 12.3913 4.45833 12.453 4.315 12.453C4.24833 12.453 4.16333 12.4347 4.06 12.398C3.95667 12.358 3.84833 12.288 3.735 12.188C3.835 12.178 3.95333 12.1247 4.09 12.028C4.22667 11.928 4.35333 11.7797 4.47 11.583C4.57667 11.3997 4.655 11.2113 4.705 11.018C4.75167 10.8213 4.775 10.638 4.775 10.468C4.775 10.2813 4.75167 10.1297 4.705 10.013C4.65833 9.89634 4.60333 9.80467 4.54 9.73801C4.47333 9.67134 4.40667 9.62467 4.34 9.59801C4.27333 9.57134 4.22 9.55634 4.18 9.55301C4.11333 9.55634 4.05 9.58801 3.99 9.64801C3.92667 9.70467 3.86667 9.78301 3.81 9.88301C3.75 9.97967 3.69 10.093 3.63 10.223C3.57 10.353 3.51 10.488 3.45 10.628C3.35667 10.838 3.27 11.0197 3.19 11.173C3.10667 11.323 3.02333 11.448 2.94 11.548C2.85333 11.6447 2.76333 11.7163 2.67 11.763C2.57667 11.8063 2.47 11.828 2.35 11.828C2.16333 11.828 1.98667 11.7713 1.82 11.658C1.65333 11.5447 1.52667 11.3813 1.44 11.168C1.39333 11.0613 1.36 10.948 1.34 10.828C1.32 10.7047 1.31 10.5847 1.31 10.468C1.31 10.248 1.34 10.033 1.4 9.82301C1.46 9.61301 1.53667 9.40301 1.63 9.19301ZM2.98 7.23727C2.98 7.20393 2.98667 7.1656 3 7.12227C3.01 7.0756 3.025 7.03393 3.045 6.99727C3.06167 6.9606 3.08 6.9306 3.1 6.90727C3.12 6.8806 3.13833 6.86727 3.155 6.86727C3.295 6.93393 3.43667 6.9956 3.58 7.05227C3.72 7.10893 3.855 7.15727 3.985 7.19727C4.115 7.23727 4.23667 7.26893 4.35 7.29227C4.46333 7.31227 4.56167 7.32227 4.645 7.32227C4.73833 7.32227 4.81667 7.31227 4.88 7.29227C4.94 7.27227 4.98333 7.23893 5.01 7.19227C5.03667 7.23227 5.05833 7.28393 5.075 7.34727C5.09167 7.4106 5.1 7.46727 5.1 7.51727C5.1 7.69727 4.97667 7.78727 4.73 7.78727C4.54 7.78727 4.28 7.72393 3.95 7.59727C4.10333 7.66393 4.24833 7.7406 4.385 7.82727C4.51833 7.91393 4.63667 8.00227 4.74 8.09227C4.84333 8.18227 4.92833 8.27393 4.995 8.36727C5.05833 8.45727 5.09667 8.5406 5.11 8.61727C5.10333 8.7406 5.045 8.8406 4.935 8.91727C4.82167 8.99393 4.67833 9.03227 4.505 9.03227C4.31833 9.03227 4.12167 8.99227 3.915 8.91227C3.70833 8.83227 3.51667 8.7306 3.34 8.60727C3.16333 8.4806 3.01667 8.34393 2.9 8.19727C2.78 8.0506 2.71667 7.90893 2.71 7.77227C2.72 7.73893 2.74 7.70227 2.77 7.66227C2.8 7.61893 2.835 7.57893 2.875 7.54227C2.915 7.50227 2.95667 7.46893 3 7.44227C3.04 7.4156 3.075 7.4006 3.105 7.39727C3.125 7.5306 3.19 7.66893 3.3 7.81227C3.41 7.95227 3.54333 8.0806 3.7 8.19727C3.85333 8.3106 4.01833 8.40393 4.195 8.47727C4.37167 8.5506 4.53667 8.58727 4.69 8.58727C4.75333 8.58727 4.79333 8.56393 4.81 8.51727C4.79 8.4206 4.70833 8.30893 4.565 8.18227C4.41833 8.0556 4.19333 7.90227 3.89 7.72227C3.83 7.68893 3.76333 7.65227 3.69 7.61227C3.61667 7.56893 3.54 7.5256 3.46 7.48227C3.38 7.43893 3.3 7.39727 3.22 7.35727C3.13667 7.31393 3.05667 7.27393 2.98 7.23727ZM4.89 5.27316C4.83667 5.3365 4.77 5.37983 4.69 5.40316C4.61 5.42316 4.54167 5.43316 4.485 5.43316C4.415 5.43316 4.355 5.42483 4.305 5.40816C4.305 5.4215 4.33167 5.4515 4.385 5.49816C4.43833 5.54483 4.50167 5.5965 4.575 5.65316C4.64833 5.7065 4.72 5.75983 4.79 5.81316C4.86 5.8665 4.91167 5.9065 4.945 5.93316C4.99167 5.9765 5.02833 6.01816 5.055 6.05816C5.08167 6.09483 5.09667 6.12483 5.1 6.14816C5.09667 6.2015 5.085 6.25816 5.065 6.31816C5.04833 6.37483 5.02333 6.42983 4.99 6.48316C4.95667 6.53316 4.91667 6.57816 4.87 6.61816C4.82333 6.65483 4.77 6.67983 4.71 6.69316C4.61667 6.69316 4.54 6.6915 4.48 6.68816C4.42 6.6815 4.355 6.66983 4.285 6.65316C4.15833 6.62316 4.015 6.57983 3.855 6.52316C3.695 6.46316 3.53833 6.39483 3.385 6.31816C3.22833 6.2415 3.08333 6.1565 2.95 6.06316C2.81333 5.9665 2.70667 5.86483 2.63 5.75816C2.63 5.72816 2.63333 5.69316 2.64 5.65316C2.64333 5.61316 2.65167 5.57316 2.665 5.53316C2.67833 5.48983 2.695 5.44983 2.715 5.41316C2.73167 5.37316 2.755 5.33983 2.785 5.31316C2.81833 5.34316 2.93 5.41983 3.12 5.54316C3.31 5.66316 3.58333 5.79816 3.94 5.94816C3.97667 5.96483 4.03 5.98483 4.1 6.00816C4.17 6.0315 4.24333 6.05483 4.32 6.07816C4.39667 6.1015 4.47167 6.1215 4.545 6.13816C4.61833 6.1515 4.67667 6.15816 4.72 6.15816C4.74667 6.15816 4.76667 6.15483 4.78 6.14816C4.79333 6.13816 4.80333 6.12983 4.81 6.12316C4.79 6.07316 4.735 6.00983 4.645 5.93316C4.555 5.8565 4.41667 5.74983 4.23 5.61316C4.18333 5.57983 4.13 5.5415 4.07 5.49816C4.01 5.4515 3.94667 5.40483 3.88 5.35816C3.81 5.3115 3.73833 5.26816 3.665 5.22816C3.59167 5.18483 3.51833 5.14983 3.445 5.12316C3.405 5.10983 3.35833 5.09316 3.305 5.07316C3.24833 5.04983 3.19 5.02316 3.13 4.99316C3.07 4.95983 3.01 4.92316 2.95 4.88316C2.88667 4.83983 2.82833 4.78983 2.775 4.73316C2.775 4.68983 2.78 4.64316 2.79 4.59316C2.8 4.54316 2.81333 4.4965 2.83 4.45316C2.84333 4.4065 2.86 4.3665 2.88 4.33316C2.89667 4.29983 2.915 4.27483 2.935 4.25816C3.08167 4.31816 3.22667 4.38483 3.37 4.45816C3.51333 4.5315 3.655 4.59983 3.795 4.66316C3.93167 4.7265 4.06833 4.77983 4.205 4.82316C4.34167 4.8665 4.475 4.88816 4.605 4.88816C4.675 4.88816 4.73667 4.88316 4.79 4.87316C4.84 4.85983 4.88333 4.8465 4.92 4.83316C4.95333 4.81983 4.98167 4.80816 5.005 4.79816C5.02833 4.78483 5.04833 4.77816 5.065 4.77816C5.06833 4.77816 5.07333 4.7815 5.08 4.78816C5.08333 4.7915 5.085 4.79483 5.085 4.79816C5.085 4.8215 5.08 4.8515 5.07 4.88816C5.06 4.92483 5.045 4.9665 5.025 5.01316C5.00833 5.0565 4.98833 5.1015 4.965 5.14816C4.94167 5.1915 4.91667 5.23316 4.89 5.27316ZM2.665 3.09199C2.665 3.02533 2.685 2.94866 2.725 2.86199C2.765 2.77533 2.81667 2.69866 2.88 2.63199C2.74667 2.64866 2.62167 2.67033 2.505 2.69699C2.385 2.72033 2.26167 2.75699 2.135 2.80699C2.00833 2.85366 1.87 2.91699 1.72 2.99699C1.57 3.07699 1.39833 3.17699 1.205 3.29699C1.175 3.28699 1.14 3.26533 1.1 3.23199C1.06 3.19533 1.02333 3.15533 0.99 3.11199C0.953333 3.06533 0.921667 3.01866 0.895 2.97199C0.868333 2.92199 0.851666 2.87533 0.845 2.83199C0.948333 2.73866 1.07833 2.65033 1.235 2.56699C1.38833 2.48366 1.555 2.41033 1.735 2.34699C1.91167 2.28366 2.095 2.23533 2.285 2.20199C2.475 2.16533 2.65667 2.14699 2.83 2.14699C3.00333 2.14699 3.18167 2.16699 3.365 2.20699C3.54833 2.24366 3.72833 2.29699 3.905 2.36699C4.07833 2.43366 4.24333 2.51199 4.4 2.60199C4.55667 2.69199 4.69667 2.79033 4.82 2.89699C4.94333 3.00033 5.04333 3.10866 5.12 3.22199C5.2 3.33533 5.25 3.44866 5.27 3.56199C5.24333 3.79199 5.16833 3.96866 5.045 4.09199C4.925 4.21199 4.75833 4.27199 4.545 4.27199C4.43167 4.27199 4.30833 4.25533 4.175 4.22199C4.04167 4.18533 3.91 4.13866 3.78 4.08199C3.64667 4.02199 3.51833 3.95366 3.395 3.87699C3.26833 3.79699 3.155 3.71366 3.055 3.62699C2.955 3.53699 2.87 3.44699 2.8 3.35699C2.73 3.26699 2.685 3.17866 2.665 3.09199ZM5.07 3.60199C5.03 3.48533 4.94167 3.36866 4.805 3.25199C4.66833 3.13533 4.50833 3.03033 4.325 2.93699C4.13833 2.84366 3.94 2.76866 3.73 2.71199C3.51667 2.65199 3.31167 2.62199 3.115 2.62199C3.05833 2.62199 3.02333 2.62199 3.01 2.62199C2.99667 2.62199 2.98333 2.62366 2.97 2.62699C3.00333 2.70699 3.06 2.79199 3.14 2.88199C3.22 2.97199 3.31333 3.06199 3.42 3.15199C3.52333 3.24199 3.63667 3.32699 3.76 3.40699C3.88333 3.48699 4.00667 3.55866 4.13 3.62199C4.25333 3.68533 4.37167 3.73533 4.485 3.77199C4.59833 3.80866 4.69833 3.82699 4.785 3.82699C4.95167 3.82699 5.04667 3.75199 5.07 3.60199ZM4.665 2.01391C4.635 2.01391 4.59833 2.01224 4.555 2.00891C4.50833 2.00224 4.44833 1.99224 4.375 1.97891C4.29833 1.96557 4.20667 1.94891 4.1 1.92891C3.99333 1.90557 3.865 1.87724 3.715 1.84391C3.68167 1.83724 3.62833 1.82224 3.555 1.79891C3.48167 1.77557 3.405 1.74557 3.325 1.70891C3.24167 1.66891 3.16167 1.62224 3.085 1.56891C3.00833 1.51224 2.95167 1.44557 2.915 1.36891C2.92833 1.31224 2.96333 1.23724 3.02 1.14391C3.07333 1.05057 3.14833 0.970573 3.245 0.903906C3.33167 0.980573 3.41833 1.04557 3.505 1.09891C3.59167 1.14891 3.68167 1.19557 3.775 1.23891C3.86833 1.27891 3.965 1.31724 4.065 1.35391C4.165 1.38724 4.27 1.42557 4.38 1.46891C4.47333 1.50557 4.57 1.53891 4.67 1.56891C4.76667 1.59891 4.85167 1.61557 4.925 1.61891C4.985 1.61891 5.02667 1.62057 5.05 1.62391C5.07667 1.62391 5.09 1.63224 5.09 1.64891C5.09 1.66224 5.08167 1.68891 5.065 1.72891C5.04833 1.76891 5.02333 1.81057 4.99 1.85391C4.95333 1.89391 4.90833 1.93057 4.855 1.96391C4.80167 1.99724 4.73833 2.01391 4.665 2.01391ZM2.495 1.05891C2.475 1.05891 2.445 1.05391 2.405 1.04391C2.38833 1.06057 2.36333 1.07557 2.33 1.08891C2.29667 1.09891 2.26667 1.10391 2.24 1.10391C2.21 1.10391 2.17 1.10057 2.12 1.09391C2.06667 1.08391 2.01 1.07224 1.95 1.05891C1.89 1.04557 1.82833 1.02891 1.765 1.00891C1.69833 0.988906 1.63833 0.968906 1.585 0.948906C1.585 0.908906 1.59667 0.860573 1.62 0.803906C1.64 0.743906 1.66833 0.683906 1.705 0.623906C1.73833 0.563906 1.77667 0.508906 1.82 0.458906C1.86 0.408906 1.89833 0.370573 1.935 0.343906C1.97167 0.380573 2.02333 0.428906 2.09 0.488906C2.15333 0.548906 2.22167 0.607239 2.295 0.663906C2.365 0.720573 2.43167 0.77224 2.495 0.818906C2.55833 0.865573 2.60333 0.895573 2.63 0.908906C2.62333 0.948906 2.60667 0.983906 2.58 1.01391C2.55 1.04391 2.52167 1.05891 2.495 1.05891Z" fill="#8A8A8A"/>
</svg>
