<svg width="1440" height="456" viewBox="0 0 1440 456" fill="none" xmlns="http://www.w3.org/2000/svg">
<path d="M8.48 266.931C8.48 266.491 8.6 266.151 8.84 265.911C9.08 265.658 9.41333 265.531 9.84 265.531C9.94667 265.531 10.06 265.544 10.18 265.571C10.2867 265.584 10.38 265.604 10.46 265.631C10.4333 265.804 10.4133 265.998 10.4 266.211C10.3733 266.424 10.36 266.678 10.36 266.971C10.36 267.544 10.4133 268.124 10.52 268.711C10.6133 269.298 10.6933 269.858 10.76 270.391C11.4667 270.698 12.1533 270.978 12.82 271.231C13.4733 271.484 14.0733 271.704 14.62 271.891C15.1667 272.064 15.64 272.204 16.04 272.311C16.44 272.404 16.74 272.458 16.94 272.471C16.7133 271.391 16.52 270.304 16.36 269.211C16.2 268.104 16.08 266.944 16 265.731C16.2267 265.584 16.4733 265.464 16.74 265.371C17.0067 265.264 17.2933 265.211 17.6 265.211C17.68 265.211 17.7667 265.211 17.86 265.211C17.9533 265.211 18.0467 265.224 18.14 265.251C18.1267 265.624 18.1133 266.018 18.1 266.431C18.1 266.844 18.1 267.384 18.1 268.051C18.1 268.491 18.1067 268.911 18.12 269.311C18.1467 269.698 18.18 270.091 18.22 270.491C18.26 270.891 18.3133 271.318 18.38 271.771C18.4467 272.211 18.5267 272.711 18.62 273.271C18.38 273.884 17.7933 274.478 16.86 275.051C16.38 274.824 15.6533 274.511 14.68 274.111C13.6933 273.698 12.38 273.178 10.74 272.551C10.5533 273.151 10.22 273.544 9.74 273.731C9.67333 273.664 9.59333 273.471 9.5 273.151C9.39333 272.831 9.28667 272.438 9.18 271.971C8.66 271.771 8.20667 271.604 7.82 271.471C7.43333 271.324 7.07333 271.198 6.74 271.091C6.39333 270.984 6.06 270.891 5.74 270.811C5.40667 270.718 5.04667 270.631 4.66 270.551C4.63333 271.018 4.50667 271.384 4.28 271.651C4.04 271.918 3.73333 272.051 3.36 272.051C3.25333 272.051 3.12667 272.038 2.98 272.011C2.83333 271.971 2.70667 271.931 2.6 271.891C2.64 271.624 2.66667 271.371 2.68 271.131C2.69333 270.878 2.7 270.551 2.7 270.151C2.7 269.311 2.68 268.524 2.64 267.791C2.58667 267.058 2.53333 266.398 2.48 265.811C2.42667 265.211 2.38 264.698 2.34 264.271C2.28667 263.844 2.26 263.518 2.26 263.291C2.26 262.984 2.42 262.711 2.74 262.471C3.06 262.231 3.51333 262.051 4.1 261.931C4.06 262.344 4.03333 262.684 4.02 262.951C4.00667 263.204 4 263.431 4 263.631C4 264.364 4.04 265.038 4.12 265.651C4.18667 266.251 4.26 266.831 4.34 267.391C4.46 267.471 4.61333 267.564 4.8 267.671C4.98667 267.764 5.24667 267.891 5.58 268.051C5.91333 268.211 6.33333 268.411 6.84 268.651C7.34667 268.878 7.98 269.158 8.74 269.491C8.66 268.984 8.6 268.511 8.56 268.071C8.50667 267.618 8.48 267.238 8.48 266.931ZM7.3 260.058C7.40667 259.712 7.64667 259.385 8.02 259.078C8.38 258.772 8.78 258.545 9.22 258.398C9.58 258.545 10.0133 258.772 10.52 259.078C11.0267 259.385 11.5467 259.692 12.08 259.998C12.6 260.305 13.1 260.585 13.58 260.838C14.0467 261.078 14.4333 261.218 14.74 261.258C14.5133 261.045 14.2533 260.812 13.96 260.558C13.6533 260.292 13.3533 260.038 13.06 259.798C12.7533 259.545 12.48 259.312 12.24 259.098C11.9867 258.885 11.8 258.718 11.68 258.598C11.4133 258.345 11.1067 258.045 10.76 257.698C10.4 257.352 10.0667 256.992 9.76 256.618C9.44 256.232 9.17333 255.845 8.96 255.458C8.73333 255.072 8.62 254.718 8.62 254.398C8.62 254.052 8.74 253.765 8.98 253.538C9.20667 253.298 9.44667 253.112 9.7 252.978C9.72667 252.978 9.76667 253.032 9.82 253.138C9.86 253.232 9.98667 253.372 10.2 253.558C10.44 253.745 10.7733 253.958 11.2 254.198C11.6133 254.425 12.0667 254.652 12.56 254.878C13.04 255.092 13.5333 255.272 14.04 255.418C14.5467 255.565 15.0067 255.638 15.42 255.638C15.7533 255.638 15.9667 255.598 16.06 255.518C16.1533 255.425 16.2 255.298 16.2 255.138C16.2 254.992 16.1667 254.838 16.1 254.678C16.0333 254.518 16 254.392 16 254.298C16.0267 254.245 16.0867 254.205 16.18 254.178C16.26 254.138 16.3333 254.118 16.4 254.118C16.4933 254.225 16.5867 254.352 16.68 254.498C16.7733 254.645 16.86 254.798 16.94 254.958C17.02 255.118 17.0867 255.278 17.14 255.438C17.1933 255.585 17.22 255.718 17.22 255.838C17.22 256.225 17.16 256.545 17.04 256.798C16.9333 257.038 16.7867 257.232 16.6 257.378C16.4133 257.512 16.1933 257.605 15.94 257.658C15.6733 257.712 15.3933 257.738 15.1 257.738C14.94 257.738 14.76 257.725 14.56 257.698C14.36 257.672 14.1267 257.618 13.86 257.538C13.58 257.458 13.2533 257.345 12.88 257.198C12.4933 257.052 12.0333 256.865 11.5 256.638C11.5 256.665 11.5933 256.845 11.78 257.178C11.9667 257.512 12.2533 257.872 12.64 258.258C13.24 258.885 13.8333 259.452 14.42 259.958C15.0067 260.452 15.66 260.958 16.38 261.478C16.7933 261.772 17.14 262.032 17.42 262.258C17.7133 262.472 17.9067 262.658 18 262.818C17.84 263.098 17.6133 263.305 17.32 263.438C17.04 263.572 16.7467 263.672 16.44 263.738C16.1867 263.738 15.8667 263.705 15.48 263.638C15.0933 263.558 14.6667 263.458 14.2 263.338C13.72 263.205 13.22 263.045 12.7 262.858C12.18 262.672 11.66 262.465 11.14 262.238C9.96667 261.732 9.04667 261.272 8.38 260.858C7.71333 260.432 7.35333 260.165 7.3 260.058ZM13.26 252.057C11.2867 251.564 9.84667 251.084 8.94 250.617C8.02 250.137 7.56 249.637 7.56 249.117C7.56 248.744 7.74 248.297 8.1 247.777C8.86 248.204 9.49333 248.537 10 248.777C10.4933 249.004 10.9467 249.171 11.36 249.277C12.16 249.504 12.9933 249.744 13.86 249.997C14.7133 250.251 15.5333 250.504 16.32 250.757C17.1067 250.997 17.8133 251.224 18.44 251.437C19.08 251.637 19.5667 251.797 19.9 251.917C20.6867 252.211 21.3533 252.504 21.9 252.797C22.4467 253.077 22.8933 253.371 23.24 253.677C23.5867 253.984 23.84 254.304 24 254.638C24.16 254.984 24.24 255.358 24.24 255.757C24.24 256.051 24.2067 256.338 24.14 256.618C24.0867 256.911 24.0067 257.184 23.9 257.438C23.8067 257.691 23.6867 257.918 23.54 258.118C23.3933 258.318 23.24 258.478 23.08 258.598C22.9867 258.584 22.8933 258.538 22.8 258.458C22.72 258.391 22.6733 258.324 22.66 258.258C22.9 258.031 23.0733 257.791 23.18 257.538C23.2867 257.298 23.34 257.004 23.34 256.658C23.34 256.231 23.2133 255.851 22.96 255.518C22.7067 255.198 22.2133 254.871 21.48 254.538C20.76 254.204 19.74 253.844 18.42 253.457C17.1133 253.071 15.3933 252.604 13.26 252.057ZM5.98 248.797C5.91333 248.797 5.8 248.777 5.64 248.737C5.48 248.897 5.25333 248.977 4.96 248.977C4.84 248.977 4.67333 248.964 4.46 248.937C4.24667 248.897 4.02 248.851 3.78 248.797C3.52667 248.731 3.27333 248.664 3.02 248.597C2.76667 248.517 2.54667 248.437 2.36 248.357C2.36 248.197 2.40667 248.004 2.5 247.777C2.58 247.537 2.69333 247.297 2.84 247.057C2.97333 246.817 3.12667 246.597 3.3 246.397C3.46 246.197 3.61333 246.044 3.76 245.937C3.90667 246.097 4.11333 246.297 4.38 246.537C4.64667 246.777 4.92667 247.011 5.22 247.237C5.5 247.464 5.76667 247.671 6.02 247.857C6.26 248.044 6.43333 248.157 6.54 248.197C6.51333 248.357 6.44667 248.497 6.34 248.617C6.22 248.737 6.1 248.797 5.98 248.797ZM17.7 245.411C17.62 246.171 17.2867 246.778 16.7 247.231C16.1133 247.684 15.3667 247.911 14.46 247.911C13.9267 247.911 13.3733 247.831 12.8 247.671C12.2267 247.511 11.6733 247.284 11.14 246.991C10.5933 246.698 10.08 246.351 9.6 245.951C9.12 245.551 8.70667 245.118 8.36 244.651C7.81333 243.918 7.54 243.231 7.54 242.591C7.76667 242.164 8.24 241.744 8.96 241.331C8.96 241.264 8.96 241.204 8.96 241.151C8.94667 241.098 8.94 241.038 8.94 240.971C8.94 240.264 9.56667 239.911 10.82 239.911C11.66 239.911 12.46 240.051 13.22 240.331C13.9667 240.598 14.6467 240.978 15.26 241.471C15.8733 241.951 16.3933 242.531 16.82 243.211C17.2333 243.878 17.5267 244.611 17.7 245.411ZM11.4 244.391C11.7067 244.618 12.04 244.831 12.4 245.031C12.76 245.231 13.1267 245.404 13.5 245.551C13.86 245.698 14.2133 245.811 14.56 245.891C14.8933 245.971 15.1933 246.011 15.46 246.011C15.78 246.011 16.0867 245.958 16.38 245.851C16.6733 245.744 16.84 245.624 16.88 245.491C16.7467 244.891 16.5 244.344 16.14 243.851C15.7667 243.344 15.3067 242.911 14.76 242.551C14.2133 242.178 13.5933 241.891 12.9 241.691C12.2067 241.478 11.4667 241.371 10.68 241.371C10.3333 241.371 10.06 241.391 9.86 241.431C9.66 241.471 9.48667 241.538 9.34 241.631C9.51333 242.218 9.79333 242.744 10.18 243.211C10.5667 243.664 10.9733 244.058 11.4 244.391ZM13.9 231.423C14.8733 231.729 15.76 232.036 16.56 232.343C17.36 232.649 18.0933 232.976 18.76 233.323C19.44 233.669 20.06 234.043 20.62 234.443C21.1933 234.843 21.7333 235.283 22.24 235.763C22.88 236.376 23.3667 237.009 23.7 237.663C24.0467 238.316 24.22 238.969 24.22 239.623C24.22 239.956 24.18 240.289 24.1 240.623C24.0333 240.943 23.9333 241.243 23.8 241.523C23.68 241.816 23.5333 242.069 23.36 242.283C23.2 242.509 23.0267 242.669 22.84 242.763C22.68 242.763 22.54 242.669 22.42 242.483C22.5667 242.323 22.68 242.189 22.76 242.083C22.84 241.976 22.9067 241.869 22.96 241.763C23.0133 241.669 23.0467 241.563 23.06 241.443C23.0733 241.336 23.08 241.209 23.08 241.063C23.08 240.303 22.8533 239.563 22.4 238.843C21.96 238.109 21.3267 237.423 20.5 236.783C19.6867 236.129 18.6933 235.536 17.52 235.003C16.36 234.469 15.06 234.016 13.62 233.643C13.8867 233.816 14.2133 234.029 14.6 234.283C14.9867 234.536 15.3733 234.816 15.76 235.123C16.1333 235.429 16.4733 235.749 16.78 236.083C17.0867 236.403 17.2933 236.716 17.4 237.023C17.3867 237.236 17.34 237.463 17.26 237.703C17.1933 237.929 17.0933 238.149 16.96 238.363C16.8267 238.563 16.6667 238.743 16.48 238.903C16.2933 239.063 16.08 239.169 15.84 239.223C15.4533 239.223 15.1467 239.209 14.92 239.183C14.68 239.156 14.42 239.109 14.14 239.043C13.6333 238.923 13.06 238.749 12.42 238.523C11.78 238.283 11.1533 238.009 10.54 237.703C9.91333 237.383 9.33333 237.036 8.8 236.663C8.25333 236.276 7.82667 235.876 7.52 235.463C7.52 235.356 7.53333 235.223 7.56 235.063C7.57333 234.903 7.60667 234.736 7.66 234.563C7.71333 234.389 7.78 234.223 7.86 234.063C7.92667 233.903 8.02 233.763 8.14 233.643C8.27333 233.789 8.72 234.109 9.48 234.603C10.24 235.096 11.3333 235.643 12.76 236.243C12.9067 236.309 13.12 236.389 13.4 236.483C13.68 236.576 13.9733 236.669 14.28 236.763C14.5867 236.843 14.8867 236.916 15.18 236.983C15.4733 237.049 15.7067 237.083 15.88 237.083C15.9867 237.083 16.0667 237.069 16.12 237.043C16.1733 237.003 16.2133 236.969 16.24 236.943C16.2 236.703 16.0067 236.383 15.66 235.983C15.3 235.583 14.7467 235.129 14 234.623C13.52 234.303 13.0467 234.009 12.58 233.743C12.1 233.476 11.62 233.216 11.14 232.963C10.66 232.696 10.1667 232.423 9.66 232.143C9.15333 231.863 8.63333 231.563 8.1 231.243C8.1 231.069 8.12 230.883 8.16 230.683C8.2 230.483 8.25333 230.289 8.32 230.103C8.37333 229.916 8.44 229.756 8.52 229.623C8.58667 229.476 8.66 229.369 8.74 229.303C9.62 229.716 10.48 230.103 11.32 230.463C12.16 230.823 13.02 231.143 13.9 231.423ZM3.52 211.272C3.74667 211.232 3.90667 211.205 4 211.192C4.08 211.165 4.19333 211.152 4.34 211.152C4.78 211.152 5.19333 211.252 5.58 211.452C5.95333 211.639 6.22 211.899 6.38 212.232C6.02 212.499 5.71333 212.825 5.46 213.212C5.19333 213.599 4.98 214.025 4.82 214.492C4.64667 214.945 4.52 215.419 4.44 215.912C4.36 216.405 4.32 216.885 4.32 217.352C4.32 217.819 4.36 218.259 4.44 218.672C4.50667 219.072 4.60667 219.432 4.74 219.752C4.86 220.059 5.01333 220.305 5.2 220.492C5.38667 220.665 5.6 220.752 5.84 220.752C6.13333 220.712 6.43333 220.532 6.74 220.212C7.03333 219.892 7.32667 219.499 7.62 219.032C7.9 218.565 8.18 218.052 8.46 217.492C8.74 216.919 9.00667 216.359 9.26 215.812C9.58 215.132 9.88 214.545 10.16 214.052C10.4267 213.559 10.7267 213.152 11.06 212.832C11.38 212.512 11.7467 212.272 12.16 212.112C12.5733 211.952 13.0733 211.872 13.66 211.872C14.34 211.872 14.98 211.985 15.58 212.212C16.1667 212.439 16.68 212.772 17.12 213.212C17.56 213.639 17.9 214.159 18.14 214.772C18.3933 215.385 18.52 216.072 18.52 216.832C18.52 217.579 18.4067 218.385 18.18 219.252C17.9533 220.119 17.64 220.932 17.24 221.692C16.8533 222.439 16.4067 223.065 15.9 223.572C15.38 224.065 14.8333 224.312 14.26 224.312C13.9933 224.312 13.6533 224.239 13.24 224.092C12.8267 223.932 12.3933 223.652 11.94 223.252C12.34 223.212 12.8133 222.999 13.36 222.612C13.9067 222.212 14.4133 221.619 14.88 220.832C15.3067 220.099 15.62 219.345 15.82 218.572C16.0067 217.785 16.1 217.052 16.1 216.372C16.1 215.625 16.0067 215.019 15.82 214.552C15.6333 214.085 15.4133 213.719 15.16 213.452C14.8933 213.185 14.6267 212.999 14.36 212.892C14.0933 212.785 13.88 212.725 13.72 212.712C13.4533 212.725 13.2 212.852 12.96 213.092C12.7067 213.319 12.4667 213.632 12.24 214.032C12 214.419 11.76 214.872 11.52 215.392C11.28 215.912 11.04 216.452 10.8 217.012C10.4267 217.852 10.08 218.579 9.76 219.192C9.42667 219.792 9.09333 220.292 8.76 220.692C8.41333 221.079 8.05333 221.365 7.68 221.552C7.30667 221.725 6.88 221.812 6.4 221.812C5.65333 221.812 4.94667 221.585 4.28 221.132C3.61333 220.679 3.10667 220.025 2.76 219.172C2.57333 218.745 2.44 218.292 2.36 217.812C2.28 217.319 2.24 216.839 2.24 216.372C2.24 215.492 2.36 214.632 2.6 213.792C2.84 212.952 3.14667 212.112 3.52 211.272ZM8.92 203.449C8.92 203.316 8.94667 203.162 9 202.989C9.04 202.802 9.1 202.636 9.18 202.489C9.24667 202.342 9.32 202.222 9.4 202.129C9.48 202.022 9.55333 201.969 9.62 201.969C10.18 202.236 10.7467 202.482 11.32 202.709C11.88 202.936 12.42 203.129 12.94 203.289C13.46 203.449 13.9467 203.576 14.4 203.669C14.8533 203.749 15.2467 203.789 15.58 203.789C15.9533 203.789 16.2667 203.749 16.52 203.669C16.76 203.589 16.9333 203.456 17.04 203.269C17.1467 203.429 17.2333 203.636 17.3 203.889C17.3667 204.142 17.4 204.369 17.4 204.569C17.4 205.289 16.9067 205.649 15.92 205.649C15.16 205.649 14.12 205.396 12.8 204.889C13.4133 205.156 13.9933 205.462 14.54 205.809C15.0733 206.156 15.5467 206.509 15.96 206.869C16.3733 207.229 16.7133 207.596 16.98 207.969C17.2333 208.329 17.3867 208.662 17.44 208.969C17.4133 209.462 17.18 209.862 16.74 210.169C16.2867 210.476 15.7133 210.629 15.02 210.629C14.2733 210.629 13.4867 210.469 12.66 210.149C11.8333 209.829 11.0667 209.422 10.36 208.929C9.65333 208.422 9.06667 207.876 8.6 207.289C8.12 206.702 7.86667 206.136 7.84 205.589C7.88 205.456 7.96 205.309 8.08 205.149C8.2 204.976 8.34 204.816 8.5 204.669C8.66 204.509 8.82667 204.376 9 204.269C9.16 204.162 9.3 204.102 9.42 204.089C9.5 204.622 9.76 205.176 10.2 205.749C10.64 206.309 11.1733 206.822 11.8 207.289C12.4133 207.742 13.0733 208.116 13.78 208.409C14.4867 208.702 15.1467 208.849 15.76 208.849C16.0133 208.849 16.1733 208.756 16.24 208.569C16.16 208.182 15.8333 207.736 15.26 207.229C14.6733 206.722 13.7733 206.109 12.56 205.389C12.32 205.256 12.0533 205.109 11.76 204.949C11.4667 204.776 11.16 204.602 10.84 204.429C10.52 204.256 10.2 204.089 9.88 203.929C9.54667 203.756 9.22667 203.596 8.92 203.449ZM16.56 195.593C16.3467 195.846 16.08 196.019 15.76 196.113C15.44 196.193 15.1667 196.233 14.94 196.233C14.66 196.233 14.42 196.199 14.22 196.133C14.22 196.186 14.3267 196.306 14.54 196.493C14.7533 196.679 15.0067 196.886 15.3 197.113C15.5933 197.326 15.88 197.539 16.16 197.753C16.44 197.966 16.6467 198.126 16.78 198.233C16.9667 198.406 17.1133 198.573 17.22 198.733C17.3267 198.879 17.3867 198.999 17.4 199.093C17.3867 199.306 17.34 199.533 17.26 199.773C17.1933 199.999 17.0933 200.219 16.96 200.433C16.8267 200.633 16.6667 200.813 16.48 200.973C16.2933 201.119 16.08 201.219 15.84 201.273C15.4667 201.273 15.16 201.266 14.92 201.253C14.68 201.226 14.42 201.179 14.14 201.113C13.6333 200.993 13.06 200.819 12.42 200.593C11.78 200.353 11.1533 200.079 10.54 199.773C9.91333 199.466 9.33333 199.126 8.8 198.753C8.25333 198.366 7.82667 197.959 7.52 197.533C7.52 197.413 7.53333 197.273 7.56 197.113C7.57333 196.953 7.60667 196.793 7.66 196.633C7.71333 196.459 7.78 196.299 7.86 196.153C7.92667 195.993 8.02 195.859 8.14 195.753C8.27333 195.873 8.72 196.179 9.48 196.673C10.24 197.153 11.3333 197.693 12.76 198.293C12.9067 198.359 13.12 198.439 13.4 198.533C13.68 198.626 13.9733 198.719 14.28 198.813C14.5867 198.906 14.8867 198.986 15.18 199.053C15.4733 199.106 15.7067 199.133 15.88 199.133C15.9867 199.133 16.0667 199.119 16.12 199.093C16.1733 199.053 16.2133 199.019 16.24 198.993C16.16 198.793 15.94 198.539 15.58 198.233C15.22 197.926 14.6667 197.499 13.92 196.953C13.7333 196.819 13.52 196.666 13.28 196.493C13.04 196.306 12.7867 196.119 12.52 195.933C12.24 195.746 11.9533 195.573 11.66 195.413C11.3667 195.239 11.0733 195.099 10.78 194.993C10.62 194.939 10.4333 194.873 10.22 194.793C9.99333 194.699 9.76 194.593 9.52 194.473C9.28 194.339 9.04 194.193 8.8 194.033C8.54667 193.859 8.31333 193.659 8.1 193.433C8.1 193.259 8.12 193.073 8.16 192.873C8.2 192.673 8.25333 192.486 8.32 192.313C8.37333 192.126 8.44 191.966 8.52 191.833C8.58667 191.699 8.66 191.599 8.74 191.533C9.32667 191.773 9.90667 192.039 10.48 192.333C11.0533 192.626 11.62 192.899 12.18 193.153C12.7267 193.406 13.2733 193.619 13.82 193.793C14.3667 193.966 14.9 194.053 15.42 194.053C15.7 194.053 15.9467 194.033 16.16 193.993C16.36 193.939 16.5333 193.886 16.68 193.833C16.8133 193.779 16.9267 193.733 17.02 193.693C17.1133 193.639 17.1933 193.613 17.26 193.613C17.2733 193.613 17.2933 193.626 17.32 193.653C17.3333 193.666 17.34 193.679 17.34 193.693C17.34 193.786 17.32 193.906 17.28 194.053C17.24 194.199 17.18 194.366 17.1 194.553C17.0333 194.726 16.9533 194.906 16.86 195.093C16.7667 195.266 16.6667 195.433 16.56 195.593ZM7.66 186.868C7.66 186.601 7.74 186.295 7.9 185.948C8.06 185.601 8.26667 185.295 8.52 185.028C7.98667 185.095 7.48667 185.181 7.02 185.288C6.54 185.381 6.04667 185.528 5.54 185.728C5.03333 185.915 4.48 186.168 3.88 186.488C3.28 186.808 2.59333 187.208 1.82 187.688C1.7 187.648 1.56 187.561 1.4 187.428C1.24 187.281 1.09333 187.121 0.959999 186.948C0.813333 186.761 0.686666 186.575 0.579999 186.388C0.473332 186.188 0.406666 186.001 0.379999 185.828C0.793333 185.455 1.31333 185.101 1.94 184.768C2.55333 184.435 3.22 184.141 3.94 183.888C4.64667 183.635 5.38 183.441 6.14 183.308C6.9 183.161 7.62667 183.088 8.32 183.088C9.01333 183.088 9.72667 183.168 10.46 183.328C11.1933 183.475 11.9133 183.688 12.62 183.968C13.3133 184.235 13.9733 184.548 14.6 184.908C15.2267 185.268 15.7867 185.661 16.28 186.088C16.7733 186.501 17.1733 186.935 17.48 187.388C17.8 187.841 18 188.295 18.08 188.748C17.9733 189.668 17.6733 190.375 17.18 190.868C16.7 191.348 16.0333 191.588 15.18 191.588C14.7267 191.588 14.2333 191.521 13.7 191.388C13.1667 191.241 12.64 191.055 12.12 190.828C11.5867 190.588 11.0733 190.315 10.58 190.008C10.0733 189.688 9.62 189.355 9.22 189.008C8.82 188.648 8.48 188.288 8.2 187.928C7.92 187.568 7.74 187.215 7.66 186.868ZM17.28 188.908C17.12 188.441 16.7667 187.975 16.22 187.508C15.6733 187.041 15.0333 186.621 14.3 186.248C13.5533 185.875 12.76 185.575 11.92 185.348C11.0667 185.108 10.2467 184.988 9.46 184.988C9.23333 184.988 9.09333 184.988 9.04 184.988C8.98667 184.988 8.93333 184.995 8.88 185.008C9.01333 185.328 9.24 185.668 9.56 186.028C9.88 186.388 10.2533 186.748 10.68 187.108C11.0933 187.468 11.5467 187.808 12.04 188.128C12.5333 188.448 13.0267 188.735 13.52 188.988C14.0133 189.241 14.4867 189.441 14.94 189.588C15.3933 189.735 15.7933 189.808 16.14 189.808C16.8067 189.808 17.1867 189.508 17.28 188.908ZM15.66 182.556C15.54 182.556 15.3933 182.549 15.22 182.536C15.0333 182.509 14.7933 182.469 14.5 182.416C14.1933 182.362 13.8267 182.296 13.4 182.216C12.9733 182.122 12.46 182.009 11.86 181.876C11.7267 181.849 11.5133 181.789 11.22 181.696C10.9267 181.602 10.62 181.482 10.3 181.336C9.96667 181.176 9.64667 180.989 9.34 180.776C9.03333 180.549 8.80667 180.282 8.66 179.976C8.71333 179.749 8.85333 179.449 9.08 179.076C9.29333 178.702 9.59333 178.382 9.98 178.116C10.3267 178.422 10.6733 178.682 11.02 178.896C11.3667 179.096 11.7267 179.282 12.1 179.456C12.4733 179.616 12.86 179.769 13.26 179.916C13.66 180.049 14.08 180.202 14.52 180.376C14.8933 180.522 15.28 180.656 15.68 180.776C16.0667 180.896 16.4067 180.962 16.7 180.976C16.94 180.976 17.1067 180.982 17.2 180.996C17.3067 180.996 17.36 181.029 17.36 181.096C17.36 181.149 17.3267 181.256 17.26 181.416C17.1933 181.576 17.0933 181.742 16.96 181.916C16.8133 182.076 16.6333 182.222 16.42 182.356C16.2067 182.489 15.9533 182.556 15.66 182.556ZM6.98 178.736C6.9 178.736 6.78 178.716 6.62 178.676C6.55333 178.742 6.45333 178.802 6.32 178.856C6.18667 178.896 6.06667 178.916 5.96 178.916C5.84 178.916 5.68 178.902 5.48 178.876C5.26667 178.836 5.04 178.789 4.8 178.736C4.56 178.682 4.31333 178.616 4.06 178.536C3.79333 178.456 3.55333 178.376 3.34 178.296C3.34 178.136 3.38667 177.942 3.48 177.716C3.56 177.476 3.67333 177.236 3.82 176.996C3.95333 176.756 4.10667 176.536 4.28 176.336C4.44 176.136 4.59333 175.982 4.74 175.876C4.88667 176.022 5.09333 176.216 5.36 176.456C5.61333 176.696 5.88667 176.929 6.18 177.156C6.46 177.382 6.72667 177.589 6.98 177.776C7.23333 177.962 7.41333 178.082 7.52 178.136C7.49333 178.296 7.42667 178.436 7.32 178.556C7.2 178.676 7.08667 178.736 6.98 178.736Z" fill="#8A8A8A"/>
</svg>
