<svg width="1440" height="456" viewBox="0 0 1440 456" fill="none" xmlns="http://www.w3.org/2000/svg">
<path d="M1420.54 269.288C1420.73 269.656 1420.82 270.048 1420.82 270.464C1420.76 270.976 1420.63 271.472 1420.44 271.952C1420.25 272.416 1420.02 272.76 1419.74 272.984C1418.96 273.112 1418.24 273.216 1417.58 273.296C1416.93 273.376 1416.31 273.44 1415.74 273.488C1415.14 273.536 1414.58 273.568 1414.06 273.584C1413.51 273.6 1412.97 273.608 1412.42 273.608C1411.7 273.608 1410.94 273.6 1410.14 273.584C1409.34 273.568 1408.5 273.552 1407.6 273.536C1406.69 273.504 1405.72 273.48 1404.7 273.464C1403.66 273.448 1402.53 273.44 1401.31 273.44C1401.31 273.232 1401.38 272.92 1401.5 272.504C1401.62 272.088 1401.75 271.68 1401.91 271.28C1402.07 270.864 1402.24 270.496 1402.42 270.176C1402.58 269.856 1402.71 269.68 1402.82 269.648C1403.27 269.808 1403.86 269.952 1404.58 270.08C1405.3 270.192 1406.1 270.288 1406.98 270.368C1407.86 270.432 1408.78 270.48 1409.76 270.512C1410.74 270.544 1411.7 270.56 1412.66 270.56C1413.38 270.56 1414.03 270.552 1414.61 270.536C1415.17 270.52 1415.68 270.504 1416.14 270.488C1416.59 270.456 1417.02 270.416 1417.42 270.368C1417.8 270.32 1418.18 270.264 1418.57 270.2C1417.21 269.752 1415.85 269.264 1414.49 268.736C1413.13 268.192 1411.82 267.64 1410.58 267.08C1409.31 266.504 1408.14 265.936 1407.05 265.376C1405.96 264.816 1405.02 264.288 1404.22 263.792C1403.4 263.28 1402.76 262.824 1402.3 262.424C1401.82 262.024 1401.56 261.696 1401.53 261.44C1401.56 261.264 1401.63 261.08 1401.74 260.888C1401.84 260.68 1401.96 260.488 1402.1 260.312C1402.25 260.136 1402.41 259.976 1402.58 259.832C1402.76 259.688 1402.94 259.576 1403.11 259.496C1403.32 260.088 1403.81 260.728 1404.58 261.416C1405.34 262.088 1406.27 262.768 1407.36 263.456C1408.43 264.144 1409.61 264.816 1410.89 265.472C1412.15 266.112 1413.39 266.696 1414.61 267.224C1415.82 267.736 1416.96 268.176 1418.02 268.544C1419.07 268.912 1419.91 269.16 1420.54 269.288ZM1417.39 262.789C1417.25 262.789 1417.07 262.781 1416.86 262.765C1416.64 262.733 1416.35 262.685 1416 262.621C1415.63 262.557 1415.19 262.477 1414.68 262.381C1414.17 262.269 1413.55 262.133 1412.83 261.973C1412.67 261.941 1412.42 261.869 1412.06 261.757C1411.71 261.645 1411.34 261.501 1410.96 261.325C1410.56 261.133 1410.18 260.909 1409.81 260.653C1409.44 260.381 1409.17 260.061 1408.99 259.693C1409.06 259.421 1409.22 259.061 1409.5 258.613C1409.75 258.165 1410.11 257.781 1410.58 257.461C1410.99 257.829 1411.41 258.141 1411.82 258.397C1412.24 258.637 1412.67 258.861 1413.12 259.069C1413.57 259.261 1414.03 259.445 1414.51 259.621C1414.99 259.781 1415.5 259.965 1416.02 260.173C1416.47 260.349 1416.94 260.509 1417.42 260.653C1417.88 260.797 1418.29 260.877 1418.64 260.893C1418.93 260.893 1419.13 260.901 1419.24 260.917C1419.37 260.917 1419.43 260.957 1419.43 261.037C1419.43 261.101 1419.39 261.229 1419.31 261.421C1419.23 261.613 1419.11 261.813 1418.95 262.021C1418.78 262.213 1418.56 262.389 1418.3 262.549C1418.05 262.709 1417.74 262.789 1417.39 262.789ZM1406.98 258.205C1406.88 258.205 1406.74 258.181 1406.54 258.133C1406.46 258.213 1406.34 258.285 1406.18 258.349C1406.02 258.397 1405.88 258.421 1405.75 258.421C1405.61 258.421 1405.42 258.405 1405.18 258.373C1404.92 258.325 1404.65 258.269 1404.36 258.205C1404.07 258.141 1403.78 258.061 1403.47 257.965C1403.15 257.869 1402.86 257.773 1402.61 257.677C1402.61 257.485 1402.66 257.253 1402.78 256.981C1402.87 256.693 1403.01 256.405 1403.18 256.117C1403.34 255.829 1403.53 255.565 1403.74 255.325C1403.93 255.085 1404.11 254.901 1404.29 254.773C1404.46 254.949 1404.71 255.181 1405.03 255.469C1405.34 255.757 1405.66 256.037 1406.02 256.309C1406.35 256.581 1406.67 256.829 1406.98 257.053C1407.28 257.277 1407.5 257.421 1407.62 257.485C1407.59 257.677 1407.51 257.845 1407.38 257.989C1407.24 258.133 1407.1 258.205 1406.98 258.205ZM1409.45 248.861C1409.75 248.877 1410.07 248.933 1410.41 249.029C1410.73 249.109 1411.02 249.213 1411.3 249.341C1411.55 249.469 1411.77 249.605 1411.94 249.749C1412.12 249.893 1412.21 250.029 1412.21 250.157C1412.19 250.333 1412.07 250.437 1411.85 250.469C1411.8 250.469 1411.73 250.453 1411.63 250.421C1411.52 250.373 1411.4 250.325 1411.27 250.277C1411.14 250.229 1411.02 250.189 1410.89 250.157C1410.76 250.109 1410.65 250.085 1410.55 250.085C1410.33 250.085 1410.14 250.141 1410 250.253C1409.84 250.349 1409.76 250.485 1409.76 250.661C1409.76 251.301 1410.16 251.789 1410.96 252.125C1411.76 252.461 1412.94 252.629 1414.49 252.629C1414.65 252.629 1414.74 252.621 1414.78 252.605C1414.76 252.269 1414.75 251.973 1414.75 251.717C1414.74 251.445 1414.73 251.181 1414.73 250.925C1414.76 250.909 1414.82 250.901 1414.92 250.901C1415.06 250.901 1415.17 250.933 1415.23 250.997C1415.31 251.365 1415.38 251.661 1415.45 251.885C1415.5 252.093 1415.54 252.253 1415.59 252.365C1415.64 252.477 1415.7 252.549 1415.76 252.581C1415.81 252.597 1415.88 252.605 1415.98 252.605C1416.1 252.605 1416.23 252.605 1416.36 252.605C1416.49 252.589 1416.65 252.581 1416.84 252.581C1418.18 252.581 1419.26 252.949 1420.08 253.685C1420.9 254.405 1421.37 255.413 1421.5 256.709C1421.48 256.933 1421.42 257.165 1421.3 257.405C1421.19 257.645 1421.05 257.877 1420.87 258.101C1420.7 258.309 1420.5 258.493 1420.27 258.653C1420.06 258.813 1419.85 258.925 1419.62 258.989C1419.02 258.989 1418.44 258.861 1417.9 258.605C1417.34 258.349 1416.85 258.005 1416.43 257.573C1416 257.125 1415.66 256.605 1415.4 256.013C1415.13 255.405 1414.97 254.749 1414.92 254.045C1414.52 254.045 1414.13 254.085 1413.74 254.165C1413.36 254.245 1412.99 254.333 1412.64 254.429C1412.27 254.509 1411.92 254.589 1411.58 254.669C1411.23 254.749 1410.89 254.789 1410.55 254.789C1410.12 254.789 1409.7 254.701 1409.28 254.525C1408.85 254.349 1408.46 254.117 1408.1 253.829C1407.74 253.541 1407.42 253.205 1407.17 252.821C1406.91 252.437 1406.74 252.037 1406.64 251.621C1406.69 251.445 1406.83 251.213 1407.07 250.925C1407.3 250.621 1407.55 250.325 1407.84 250.037C1408.13 249.749 1408.42 249.493 1408.73 249.269C1409.02 249.045 1409.26 248.909 1409.45 248.861ZM1420.39 256.781C1420.23 256.397 1420 256.037 1419.7 255.701C1419.39 255.349 1419.05 255.045 1418.66 254.789C1418.28 254.533 1417.87 254.333 1417.44 254.189C1417.01 254.029 1416.58 253.949 1416.17 253.949C1416.22 254.269 1416.37 254.621 1416.62 255.005C1416.86 255.389 1417.16 255.749 1417.51 256.085C1417.85 256.421 1418.2 256.701 1418.57 256.925C1418.94 257.149 1419.26 257.261 1419.53 257.261C1419.88 257.261 1420.17 257.101 1420.39 256.781ZM1417.39 248.82C1417.25 248.82 1417.07 248.812 1416.86 248.796C1416.64 248.764 1416.35 248.716 1416 248.652C1415.63 248.588 1415.19 248.508 1414.68 248.412C1414.17 248.3 1413.55 248.164 1412.83 248.004C1412.67 247.972 1412.42 247.9 1412.06 247.788C1411.71 247.676 1411.34 247.532 1410.96 247.356C1410.56 247.164 1410.18 246.94 1409.81 246.684C1409.44 246.412 1409.17 246.092 1408.99 245.724C1409.06 245.452 1409.22 245.092 1409.5 244.644C1409.75 244.196 1410.11 243.812 1410.58 243.492C1410.99 243.86 1411.41 244.172 1411.82 244.428C1412.24 244.668 1412.67 244.892 1413.12 245.1C1413.57 245.292 1414.03 245.476 1414.51 245.652C1414.99 245.812 1415.5 245.996 1416.02 246.204C1416.47 246.38 1416.94 246.54 1417.42 246.684C1417.88 246.828 1418.29 246.908 1418.64 246.924C1418.93 246.924 1419.13 246.932 1419.24 246.948C1419.37 246.948 1419.43 246.988 1419.43 247.068C1419.43 247.132 1419.39 247.26 1419.31 247.452C1419.23 247.644 1419.11 247.844 1418.95 248.052C1418.78 248.244 1418.56 248.42 1418.3 248.58C1418.05 248.74 1417.74 248.82 1417.39 248.82ZM1406.98 244.236C1406.88 244.236 1406.74 244.212 1406.54 244.164C1406.46 244.244 1406.34 244.316 1406.18 244.38C1406.02 244.428 1405.88 244.452 1405.75 244.452C1405.61 244.452 1405.42 244.436 1405.18 244.404C1404.92 244.356 1404.65 244.3 1404.36 244.236C1404.07 244.172 1403.78 244.092 1403.47 243.996C1403.15 243.9 1402.86 243.804 1402.61 243.708C1402.61 243.516 1402.66 243.284 1402.78 243.012C1402.87 242.724 1403.01 242.436 1403.18 242.148C1403.34 241.86 1403.53 241.596 1403.74 241.356C1403.93 241.116 1404.11 240.932 1404.29 240.804C1404.46 240.98 1404.71 241.212 1405.03 241.5C1405.34 241.788 1405.66 242.068 1406.02 242.34C1406.35 242.612 1406.67 242.86 1406.98 243.084C1407.28 243.308 1407.5 243.452 1407.62 243.516C1407.59 243.708 1407.51 243.876 1407.38 244.02C1407.24 244.164 1407.1 244.236 1406.98 244.236ZM1409.81 241.92C1409.71 242 1409.51 242.072 1409.21 242.136C1408.89 242.2 1408.62 242.232 1408.39 242.232C1408.42 241.816 1408.46 241.416 1408.49 241.032C1408.5 240.648 1408.52 240.296 1408.54 239.976C1408.06 239.736 1407.58 239.48 1407.12 239.208C1406.64 238.92 1406.21 238.648 1405.82 238.392C1405.42 238.12 1405.09 237.872 1404.82 237.648C1404.54 237.408 1404.37 237.224 1404.29 237.096C1404.29 236.936 1404.32 236.736 1404.38 236.496C1404.43 236.24 1404.5 235.984 1404.6 235.728C1404.68 235.472 1404.77 235.24 1404.86 235.032C1404.96 234.824 1405.06 234.68 1405.15 234.6C1405.76 235.08 1406.33 235.496 1406.86 235.848C1407.37 236.184 1407.96 236.552 1408.63 236.952C1408.63 236.632 1408.62 236.312 1408.61 235.992C1408.59 235.656 1408.57 235.32 1408.54 234.984C1408.62 234.904 1408.72 234.84 1408.85 234.792C1408.96 234.744 1409.08 234.72 1409.21 234.72C1409.5 235.504 1409.66 236.456 1409.69 237.576C1410.46 237.976 1411.22 238.336 1411.99 238.656C1412.74 238.96 1413.47 239.224 1414.18 239.448C1414.88 239.656 1415.54 239.824 1416.17 239.952C1416.79 240.064 1417.35 240.12 1417.85 240.12C1418.55 240.12 1418.94 239.856 1419.02 239.328C1418.96 238.848 1418.84 238.392 1418.66 237.96C1418.49 237.528 1418.26 237.144 1417.99 236.808C1418.14 236.712 1418.26 236.656 1418.35 236.64C1418.5 236.736 1418.66 236.904 1418.86 237.144C1419.05 237.368 1419.23 237.616 1419.41 237.888C1419.6 238.16 1419.76 238.424 1419.89 238.68C1420.02 238.936 1420.09 239.128 1420.1 239.256C1420.09 239.656 1420 240.056 1419.84 240.456C1419.68 240.856 1419.48 241.224 1419.24 241.56C1419 241.88 1418.74 242.144 1418.45 242.352C1418.14 242.56 1417.85 242.664 1417.56 242.664C1417.18 242.664 1416.7 242.616 1416.12 242.52C1415.53 242.408 1414.89 242.256 1414.2 242.064C1413.51 241.872 1412.79 241.648 1412.04 241.392C1411.29 241.136 1410.54 240.856 1409.81 240.552V241.92ZM1402.82 213.436C1403.1 213.388 1403.29 213.356 1403.4 213.34C1403.5 213.308 1403.63 213.292 1403.81 213.292C1404.34 213.292 1404.83 213.412 1405.3 213.652C1405.74 213.876 1406.06 214.188 1406.26 214.588C1405.82 214.908 1405.46 215.3 1405.15 215.764C1404.83 216.228 1404.58 216.74 1404.38 217.3C1404.18 217.844 1404.02 218.412 1403.93 219.004C1403.83 219.596 1403.78 220.172 1403.78 220.732C1403.78 221.292 1403.83 221.82 1403.93 222.316C1404.01 222.796 1404.13 223.228 1404.29 223.612C1404.43 223.98 1404.62 224.276 1404.84 224.5C1405.06 224.708 1405.32 224.812 1405.61 224.812C1405.96 224.764 1406.32 224.548 1406.69 224.164C1407.04 223.78 1407.39 223.308 1407.74 222.748C1408.08 222.188 1408.42 221.572 1408.75 220.9C1409.09 220.212 1409.41 219.54 1409.71 218.884C1410.1 218.068 1410.46 217.364 1410.79 216.772C1411.11 216.18 1411.47 215.692 1411.87 215.308C1412.26 214.924 1412.7 214.636 1413.19 214.444C1413.69 214.252 1414.29 214.156 1414.99 214.156C1415.81 214.156 1416.58 214.292 1417.3 214.564C1418 214.836 1418.62 215.236 1419.14 215.764C1419.67 216.276 1420.08 216.9 1420.37 217.636C1420.67 218.372 1420.82 219.196 1420.82 220.108C1420.82 221.004 1420.69 221.972 1420.42 223.012C1420.14 224.052 1419.77 225.028 1419.29 225.94C1418.82 226.836 1418.29 227.588 1417.68 228.196C1417.06 228.788 1416.4 229.084 1415.71 229.084C1415.39 229.084 1414.98 228.996 1414.49 228.82C1413.99 228.628 1413.47 228.292 1412.93 227.812C1413.41 227.764 1413.98 227.508 1414.63 227.044C1415.29 226.564 1415.9 225.852 1416.46 224.908C1416.97 224.028 1417.34 223.124 1417.58 222.196C1417.81 221.252 1417.92 220.372 1417.92 219.556C1417.92 218.66 1417.81 217.932 1417.58 217.372C1417.36 216.812 1417.1 216.372 1416.79 216.052C1416.47 215.732 1416.15 215.508 1415.83 215.38C1415.51 215.252 1415.26 215.18 1415.06 215.164C1414.74 215.18 1414.44 215.332 1414.15 215.62C1413.85 215.892 1413.56 216.268 1413.29 216.748C1413 217.212 1412.71 217.756 1412.42 218.38C1412.14 219.004 1411.85 219.652 1411.56 220.324C1411.11 221.332 1410.7 222.204 1410.31 222.94C1409.91 223.66 1409.51 224.26 1409.11 224.74C1408.7 225.204 1408.26 225.548 1407.82 225.772C1407.37 225.98 1406.86 226.084 1406.28 226.084C1405.38 226.084 1404.54 225.812 1403.74 225.268C1402.94 224.724 1402.33 223.94 1401.91 222.916C1401.69 222.404 1401.53 221.86 1401.43 221.284C1401.34 220.692 1401.29 220.116 1401.29 219.556C1401.29 218.5 1401.43 217.468 1401.72 216.46C1402.01 215.452 1402.38 214.444 1402.82 213.436ZM1409.3 204.048C1409.3 203.888 1409.34 203.704 1409.4 203.496C1409.45 203.272 1409.52 203.072 1409.62 202.896C1409.7 202.72 1409.78 202.576 1409.88 202.464C1409.98 202.336 1410.06 202.272 1410.14 202.272C1410.82 202.592 1411.5 202.888 1412.18 203.16C1412.86 203.432 1413.5 203.664 1414.13 203.856C1414.75 204.048 1415.34 204.2 1415.88 204.312C1416.42 204.408 1416.9 204.456 1417.3 204.456C1417.74 204.456 1418.12 204.408 1418.42 204.312C1418.71 204.216 1418.92 204.056 1419.05 203.832C1419.18 204.024 1419.28 204.272 1419.36 204.576C1419.44 204.88 1419.48 205.152 1419.48 205.392C1419.48 206.256 1418.89 206.688 1417.7 206.688C1416.79 206.688 1415.54 206.384 1413.96 205.776C1414.7 206.096 1415.39 206.464 1416.05 206.88C1416.69 207.296 1417.26 207.72 1417.75 208.152C1418.25 208.584 1418.66 209.024 1418.98 209.472C1419.28 209.904 1419.46 210.304 1419.53 210.672C1419.5 211.264 1419.22 211.744 1418.69 212.112C1418.14 212.48 1417.46 212.664 1416.62 212.664C1415.73 212.664 1414.78 212.472 1413.79 212.088C1412.8 211.704 1411.88 211.216 1411.03 210.624C1410.18 210.016 1409.48 209.36 1408.92 208.656C1408.34 207.952 1408.04 207.272 1408.01 206.616C1408.06 206.456 1408.15 206.28 1408.3 206.088C1408.44 205.88 1408.61 205.688 1408.8 205.512C1408.99 205.32 1409.19 205.16 1409.4 205.032C1409.59 204.904 1409.76 204.832 1409.9 204.816C1410 205.456 1410.31 206.12 1410.84 206.808C1411.37 207.48 1412.01 208.096 1412.76 208.656C1413.5 209.2 1414.29 209.648 1415.14 210C1415.98 210.352 1416.78 210.528 1417.51 210.528C1417.82 210.528 1418.01 210.416 1418.09 210.192C1417.99 209.728 1417.6 209.192 1416.91 208.584C1416.21 207.976 1415.13 207.24 1413.67 206.376C1413.38 206.216 1413.06 206.04 1412.71 205.848C1412.36 205.64 1411.99 205.432 1411.61 205.224C1411.22 205.016 1410.84 204.816 1410.46 204.624C1410.06 204.416 1409.67 204.224 1409.3 204.048ZM1418.47 194.621C1418.22 194.925 1417.9 195.133 1417.51 195.245C1417.13 195.341 1416.8 195.389 1416.53 195.389C1416.19 195.389 1415.9 195.349 1415.66 195.269C1415.66 195.333 1415.79 195.477 1416.05 195.701C1416.3 195.925 1416.61 196.173 1416.96 196.445C1417.31 196.701 1417.66 196.957 1417.99 197.213C1418.33 197.469 1418.58 197.661 1418.74 197.789C1418.96 197.997 1419.14 198.197 1419.26 198.389C1419.39 198.565 1419.46 198.709 1419.48 198.821C1419.46 199.077 1419.41 199.349 1419.31 199.637C1419.23 199.909 1419.11 200.173 1418.95 200.429C1418.79 200.669 1418.6 200.885 1418.38 201.077C1418.15 201.253 1417.9 201.373 1417.61 201.437C1417.16 201.437 1416.79 201.429 1416.5 201.413C1416.22 201.381 1415.9 201.325 1415.57 201.245C1414.96 201.101 1414.27 200.893 1413.5 200.621C1412.74 200.333 1411.98 200.005 1411.25 199.637C1410.5 199.269 1409.8 198.861 1409.16 198.413C1408.5 197.949 1407.99 197.461 1407.62 196.949C1407.62 196.805 1407.64 196.637 1407.67 196.445C1407.69 196.253 1407.73 196.061 1407.79 195.869C1407.86 195.661 1407.94 195.469 1408.03 195.293C1408.11 195.101 1408.22 194.941 1408.37 194.813C1408.53 194.957 1409.06 195.325 1409.98 195.917C1410.89 196.493 1412.2 197.141 1413.91 197.861C1414.09 197.941 1414.34 198.037 1414.68 198.149C1415.02 198.261 1415.37 198.373 1415.74 198.485C1416.1 198.597 1416.46 198.693 1416.82 198.773C1417.17 198.837 1417.45 198.869 1417.66 198.869C1417.78 198.869 1417.88 198.853 1417.94 198.821C1418.01 198.773 1418.06 198.733 1418.09 198.701C1417.99 198.461 1417.73 198.157 1417.3 197.789C1416.86 197.421 1416.2 196.909 1415.3 196.253C1415.08 196.093 1414.82 195.909 1414.54 195.701C1414.25 195.477 1413.94 195.253 1413.62 195.029C1413.29 194.805 1412.94 194.597 1412.59 194.405C1412.24 194.197 1411.89 194.029 1411.54 193.901C1411.34 193.837 1411.12 193.757 1410.86 193.661C1410.59 193.549 1410.31 193.421 1410.02 193.277C1409.74 193.117 1409.45 192.941 1409.16 192.749C1408.86 192.541 1408.58 192.301 1408.32 192.029C1408.32 191.821 1408.34 191.597 1408.39 191.357C1408.44 191.117 1408.5 190.893 1408.58 190.685C1408.65 190.461 1408.73 190.269 1408.82 190.109C1408.9 189.949 1408.99 189.829 1409.09 189.749C1409.79 190.037 1410.49 190.357 1411.18 190.709C1411.86 191.061 1412.54 191.389 1413.22 191.693C1413.87 191.997 1414.53 192.253 1415.18 192.461C1415.84 192.669 1416.48 192.773 1417.1 192.773C1417.44 192.773 1417.74 192.749 1417.99 192.701C1418.23 192.637 1418.44 192.573 1418.62 192.509C1418.78 192.445 1418.91 192.389 1419.02 192.341C1419.14 192.277 1419.23 192.245 1419.31 192.245C1419.33 192.245 1419.35 192.261 1419.38 192.293C1419.4 192.309 1419.41 192.325 1419.41 192.341C1419.41 192.453 1419.38 192.597 1419.34 192.773C1419.29 192.949 1419.22 193.149 1419.12 193.373C1419.04 193.581 1418.94 193.797 1418.83 194.021C1418.72 194.229 1418.6 194.429 1418.47 194.621ZM1407.79 184.151C1407.79 183.831 1407.89 183.463 1408.08 183.047C1408.27 182.631 1408.52 182.263 1408.82 181.943C1408.18 182.023 1407.58 182.127 1407.02 182.255C1406.45 182.367 1405.86 182.543 1405.25 182.783C1404.64 183.007 1403.98 183.311 1403.26 183.695C1402.54 184.079 1401.71 184.559 1400.78 185.135C1400.64 185.087 1400.47 184.983 1400.28 184.823C1400.09 184.647 1399.91 184.455 1399.75 184.247C1399.58 184.023 1399.42 183.799 1399.3 183.575C1399.17 183.335 1399.09 183.111 1399.06 182.903C1399.55 182.455 1400.18 182.031 1400.93 181.631C1401.66 181.231 1402.46 180.879 1403.33 180.575C1404.18 180.271 1405.06 180.039 1405.97 179.879C1406.88 179.703 1407.75 179.615 1408.58 179.615C1409.42 179.615 1410.27 179.711 1411.15 179.903C1412.03 180.079 1412.9 180.335 1413.74 180.671C1414.58 180.991 1415.37 181.367 1416.12 181.799C1416.87 182.231 1417.54 182.703 1418.14 183.215C1418.73 183.711 1419.21 184.231 1419.58 184.775C1419.96 185.319 1420.2 185.863 1420.3 186.407C1420.17 187.511 1419.81 188.359 1419.22 188.951C1418.64 189.527 1417.84 189.815 1416.82 189.815C1416.27 189.815 1415.68 189.735 1415.04 189.575C1414.4 189.399 1413.77 189.175 1413.14 188.903C1412.5 188.615 1411.89 188.287 1411.3 187.919C1410.69 187.535 1410.14 187.135 1409.66 186.719C1409.18 186.287 1408.78 185.855 1408.44 185.423C1408.1 184.991 1407.89 184.567 1407.79 184.151ZM1419.34 186.599C1419.14 186.039 1418.72 185.479 1418.06 184.919C1417.41 184.359 1416.64 183.855 1415.76 183.407C1414.86 182.959 1413.91 182.599 1412.9 182.327C1411.88 182.039 1410.9 181.895 1409.95 181.895C1409.68 181.895 1409.51 181.895 1409.45 181.895C1409.38 181.895 1409.32 181.903 1409.26 181.919C1409.42 182.303 1409.69 182.711 1410.07 183.143C1410.46 183.575 1410.9 184.007 1411.42 184.439C1411.91 184.871 1412.46 185.279 1413.05 185.663C1413.64 186.047 1414.23 186.391 1414.82 186.695C1415.42 186.999 1415.98 187.239 1416.53 187.415C1417.07 187.591 1417.55 187.679 1417.97 187.679C1418.77 187.679 1419.22 187.319 1419.34 186.599ZM1417.39 178.976C1417.25 178.976 1417.07 178.968 1416.86 178.952C1416.64 178.92 1416.35 178.872 1416 178.808C1415.63 178.744 1415.19 178.664 1414.68 178.568C1414.17 178.456 1413.55 178.32 1412.83 178.16C1412.67 178.128 1412.42 178.056 1412.06 177.944C1411.71 177.832 1411.34 177.688 1410.96 177.512C1410.56 177.32 1410.18 177.096 1409.81 176.84C1409.44 176.568 1409.17 176.248 1408.99 175.88C1409.06 175.608 1409.22 175.248 1409.5 174.8C1409.75 174.352 1410.11 173.968 1410.58 173.648C1410.99 174.016 1411.41 174.328 1411.82 174.584C1412.24 174.824 1412.67 175.048 1413.12 175.256C1413.57 175.448 1414.03 175.632 1414.51 175.808C1414.99 175.968 1415.5 176.152 1416.02 176.36C1416.47 176.536 1416.94 176.696 1417.42 176.84C1417.88 176.984 1418.29 177.064 1418.64 177.08C1418.93 177.08 1419.13 177.088 1419.24 177.104C1419.37 177.104 1419.43 177.144 1419.43 177.224C1419.43 177.288 1419.39 177.416 1419.31 177.608C1419.23 177.8 1419.11 178 1418.95 178.208C1418.78 178.4 1418.56 178.576 1418.3 178.736C1418.05 178.896 1417.74 178.976 1417.39 178.976ZM1406.98 174.392C1406.88 174.392 1406.74 174.368 1406.54 174.32C1406.46 174.4 1406.34 174.472 1406.18 174.536C1406.02 174.584 1405.88 174.608 1405.75 174.608C1405.61 174.608 1405.42 174.592 1405.18 174.56C1404.92 174.512 1404.65 174.456 1404.36 174.392C1404.07 174.328 1403.78 174.248 1403.47 174.152C1403.15 174.056 1402.86 173.96 1402.61 173.864C1402.61 173.672 1402.66 173.44 1402.78 173.168C1402.87 172.88 1403.01 172.592 1403.18 172.304C1403.34 172.016 1403.53 171.752 1403.74 171.512C1403.93 171.272 1404.11 171.088 1404.29 170.96C1404.46 171.136 1404.71 171.368 1405.03 171.656C1405.34 171.944 1405.66 172.224 1406.02 172.496C1406.35 172.768 1406.67 173.016 1406.98 173.24C1407.28 173.464 1407.5 173.608 1407.62 173.672C1407.59 173.864 1407.51 174.032 1407.38 174.176C1407.24 174.32 1407.1 174.392 1406.98 174.392Z" fill="#8A8A8A"/>
</svg>
